<svg width="24" height="24" viewBox="0 0 24 24" fill="none" xmlns="http://www.w3.org/2000/svg">
<path d="M7 3H17V7C17 9.20914 15.2091 11 13 11H11C8.79086 11 7 9.20914 7 7V3Z" fill="black"/>
<path d="M7 5C5.89543 5 5 5.89543 5 7C5 8.10457 5.89543 9 7 9V8C6.44772 8 6 7.55228 6 7C6 6.44772 6.44772 6 7 6V5Z" fill="black"/>
<path d="M17 5C18.1046 5 19 5.89543 19 7C19 8.10457 18.1046 9 17 9V8C17.5523 8 18 7.55228 18 7C18 6.44772 17.5523 6 17 6V5Z" fill="black"/>
<path d="M11 11H13V17H11V11Z" fill="black"/>
<path d="M8 17H16C16.5523 17 17 17.4477 17 18V19H7V18C7 17.4477 7.44772 17 8 17Z" fill="black"/>
</svg>
